#!OML:ASF F:\VICON\USERDATA\INSTALL\rory3\rory3.ASF
:FULLY-SPECIFIED
:DEGREES
64
root 0.6613129842924285 17.912271584134032 15.860148885676193 -3.691606189006468 -4.372114917989417 -0.37776476029731976
lfemur -13.18204066794775 -2.1133759117533693 -23.78118515481958
ltibia 30.553260210291597
lfoot -10.057522614192573 -2.1846422682090747
ltoes -0.2783085005937451
rfemur -12.676857340366947 2.696986700562068 21.848757975973836
rtibia 75.05230480883435
rfoot 11.398154690957625 -2.9354977096095274
rtoes 16.74251719181987
lowerback 1.0 1.8223585038675219 1.312927639022682
upperback 0.23780886595961842 2.6653911584717886 0.7396816206419805
thorax -5.6477704133544 1.2487290262463486 -0.332271443758702
lowerneck -15.5691171646246 -3.037349341366351 -1.9911509886946315
upperneck 23.43864301044713 -3.9362392876531485 0.8768856366052529
head 10.156711568213645 -1.8669217761341868 0.07379060538193764
lclavicle -7.741331787359196e-17 -2.890988840787461e-15
lhumerus -35.604900158471935 8.387810228635539 80.22924985208552
lradius 20.466898760089887
lwrist 2.654363353344591
lhand -26.526156386598693 24.538733327413087
lfingers nan
lthumb 0.19123188944532343 54.939248365546
rclavicle 1.7870942648113503e-15 -1.489436135812513e-15
rhumerus -25.08942576024733 -20.770967991273086 -78.84380979319137
rradius 25.3669703002086
rwrist 6.893523585625491
rhand -18.97529652426847 1.0
rfingers nan
rthumb 7.352696313951541 -7.973066232645619
65
root 0.6688124448733951 17.942509600000136 16.594290433833798 -3.8659981116934063 -4.020703291069186 -0.09149402760888092
lfemur -9.898354229646888 -2.465752105398681 -24.606340599652565
ltibia 28.96892365929712
lfoot -10.72078086681623 -1.4014138005121022
ltoes -2.069654485098424
rfemur -18.274086573404666 1.7796578982315356 21.413678792778175
rtibia 77.45740774478693
rfoot 6.249406505634065 -4.922531523770009
rtoes 15.89542399545806
lowerback 1.0 1.2649560673664946 0.7484447046683442
upperback 0.18085339572870118 1.8536275850272241 0.8662822194848466
thorax -6.082162568097295 0.851792156199112 0.20351484936633046
lowerneck -15.577535055256668 -2.9691026434336685 -2.0278990964151964
upperneck 23.670543321108564 -3.5864538131592467 0.5619052592036919
head 10.20577672522154 -1.7270835878128064 -0.0036416108440688114
lclavicle 3.790871647462456e-15 2.537652749073537e-15
lhumerus -34.409443820336016 7.113841385205844 80.64419446821205
lradius 21.689269726204714
lwrist 2.927022384344682
lhand -26.538889929412985 25.712258262727886
lfingers nan
lthumb -0.6782054083896478 54.54605836935919
rclavicle -9.791274703719448e-16 -3.2943199810890787e-16
rhumerus -26.277293270818987 -22.427331785007087 -78.14919096272493
rradius 25.03582469587261
rwrist 7.363289825229763
rhand -18.688486544804064 1.0
rfingers nan
rthumb 7.515027991236294 -9.23841102701843
66
root 0.6799206803038629 17.94951282226015 17.986458148971714 -3.9102032721234297 -3.3260329432810556 0.31805582573841673
lfemur -6.325974782647469 -2.8593640087646097 -25.49927672933097
ltibia 27.352566621646897
lfoot -12.20578382535338 -0.6245794126851969
ltoes -2.8347658828638136
rfemur -22.740786917201127 0.9572889946928349 20.988788706382298
rtibia 76.65862699144415
rfoot 1.5146392748443933 -5.6796917614355396
rtoes 14.19652375010164
lowerback 1.0 0.7493795087633235 0.21713728450952807
upperback 0.35648820980529916 1.2218596156458081 1.0937671904712427
thorax -5.787118661619346 0.5150789405798423 0.7953338102521982
lowerneck -15.4949572050019 -2.8581750946486673 -2.2312344222602576
upperneck 23.673139225498176 -3.169396947589795 0.7161596332178577
head 10.177308496112177 -1.5463997126425952 0.15677947541031773
lclavicle -2.01077037192117e-15 5.985997654526886e-16
lhumerus -32.53009932341821 5.50337017018075 81.01700670294075
lradius 22.348148865977873
lwrist 2.7262509086865983
lhand -26.886573607124443 25.827515425679344
lfingers nan
lthumb -0.3582164564852898 55.6715544625876
rclavicle -3.0690836590265353e-15 1.6365173251740078e-15
rhumerus -27.564415999330237 -22.920148364137816 -77.51675493119208
rradius 25.136878165004077
rwrist 5.95399948982573
rhand -19.230572309118244 1.0
rfingers nan
rthumb 7.21486756619412 -6.8467649509341735
67
root 0.6792732336495544 17.927836632243224 18.850347346310894 -3.823092003685254 -2.6016913310149152 0.749549874660518
lfemur -4.437896086920429 -3.2091934851169817 -26.000892454396975
ltibia 27.693050336317903
lfoot -13.489774530210129 0.24482678428731663
ltoes -1.2372188715760108
rfemur -27.534215231689775 0.2172739891244242 20.909769988940162
rtibia 73.29547219047964
rfoot -3.456041562798484 -6.585411735168448
rtoes 13.121015233462627
lowerback 1.0 0.23164514600255923 -0.31790186055252545
upperback 0.3574361323452028 0.4788845257967055 1.2844277422500086
thorax -6.028655833103789 0.18255272563317973 1.5086605077986932
lowerneck -15.658379709316955 -2.8307024883414593 -2.373100327886025
upperneck 23.55015034611131 -3.1439741929533986 0.5696181500943531
head 10.193030618067334 -1.557558681487194 0.12103164773425146
lclavicle -1.538100201478953e-15 2.187652069503334e-15
lhumerus -30.513906025968417 3.640451515221671 81.42590042537198
lradius 23.006178456325785
lwrist 3.35480612936416
lhand -26.853318836812402 26.054733497776216
lfingers nan
lthumb -0.5676335359835238 55.429009559966076
rclavicle -1.844707189783652e-15 7.839992499991258e-16
rhumerus -28.753102317441773 -22.715395607704348 -77.06984452437982
rradius 25.680447551810737
rwrist 4.481099860106783
rhand -19.858122160074696 1.0
rfingers nan
rthumb 6.5150422652208375 -7.660657102234858
68
root 0.6688453374679864 17.899731042261795 19.58630527114736 -3.5865630799580117 -1.8893015722455397 1.251559348071743
lfemur -1.9191070960491592 -2.840782685297043 -27.34922113066214
ltibia 27.124721726323756
lfoot -13.450103420350583 0.867118123164893
ltoes 0.08881262632220199
rfemur -30.582790453137747 -0.5063517966690756 19.862568114863848
rtibia 66.71966250264721
rfoot -6.671046204186197 -7.648055429745643
rtoes 6.798940547878008
lowerback 1.0 -0.14004408031468776 -1.6917825222249838
upperback 0.3777977303396603 -0.16017456287601745 1.2333064170738677
thorax -6.11472288627362 -0.07206312384943411 2.1263042487277524
lowerneck -15.86979489626087 -2.8661824705711014 -2.4301074985031588
upperneck 23.176770539414896 -3.1889296920161945 0.6006423365721283
head 10.053556672760735 -1.5752734947898632 0.13632614500560075
lclavicle -3.2329568444885402e-15 -1.2397624597719922e-15
lhumerus -28.49303059060445 0.9788512591947671 81.69745380111308
lradius 23.869287347325617
lwrist 3.9741778655477056
lhand -26.116394652701505 25.65747626279987
lfingers nan
lthumb -0.05602705653695972 54.82548552468726
rclavicle -7.230829754354814e-16 3.237353307073464e-16
rhumerus -30.08963857629646 -22.536017503498748 -76.56907662722043
rradius 26.38405524833231
rwrist 3.7240133838384866
rhand -19.71296122051053 1.0
rfingers nan
rthumb 6.654686639063017 -6.882377323796522
69
root 0.6538815445847197 17.88219329445486 20.437897263567827 -3.1660199821202806 -1.1610857828565664 1.6758345334607216
lfemur 1.0992927190690391 -2.4967613451275343 -27.35904150232287
ltibia 25.39432227036923
lfoot -12.503354168683577 1.0937868893922822
ltoes 0.9275064905271169
rfemur -32.13396160097051 -0.38623369069954583 19.74477729991609
rtibia 56.54818219045295
rfoot -7.116164382035655 -8.748689351805668
rtoes 2.9808289666847796
lowerback 1.0 -0.5190877602814465 -2.1787137086271633
upperback 0.5245211592367721 -0.852609373884341 1.3243270320941973
thorax -5.6557260254745385 -0.36183833829813317 2.824226909905447
lowerneck -15.87542302432059 -2.842294652610288 -2.5697446530534958
upperneck 22.698720012513398 -3.171606090431109 0.8495166364969371
head 9.883664759900192 -1.5618822008897075 0.2680884133009234
lclavicle 4.847871820769744e-16 7.617283628555839e-16
lhumerus -26.6561029907988 -0.4747629340635151 81.64276587269788
lradius 25.04906569684888
lwrist 4.507887326599155
lhand -25.517744527278676 27.774429271131826
lfingers nan
lthumb 1.2692982045377317 58.23320776178379
rclavicle 2.0315862501311245e-16 1.4493583722564414e-15
rhumerus -31.054081731585285 -22.16763122338558 -76.40661099514573
rradius 26.909031015431438
rwrist 3.0503393043411973
rhand -19.617507912779917 1.0
rfingers nan
rthumb 6.753224141982289 -7.950220270560234
70
root 0.6274087190687944 17.861994749978784 21.0346860439541 -2.551878822362041 -0.46642891502741857 1.9689789881932753
lfemur 4.6481493318675255 -1.9492908359592591 -27.421375777355607
ltibia 21.586872110879476
lfoot -11.197193855820533 0.18579942972275276
ltoes 0.8517992097780356
rfemur -31.981419254684198 0.6574852647202691 19.186985174261032
rtibia 43.90453884234194
rfoot -5.937779069279408 -9.605544426784506
rtoes 2.0100894749923617
lowerback 1.0 -0.825246571992135 -2.569144540540676
upperback 0.5398088944751863 -1.3572367957660547 1.438923323810228
thorax -5.369407684164316 -0.5796968140354589 3.185745430756482
lowerneck -15.998049333455729 -2.8658230341541433 -2.5770101065562216
upperneck 21.87049898955898 -3.1535283862718178 0.8325753159236484
head 9.56868344968378 -1.5363691940468 0.25543885068315964
lclavicle -2.350430629548925e-15 1.2399160107767954e-15
lhumerus -24.497931810788092 -1.7522389394860869 81.72581351669395
lradius 26.372104431817256
lwrist 4.7510897533658
lhand -27.34298061884657 25.363666125156698
lfingers nan
lthumb -0.35771687509222455 56.226482318675224
rclavicle -1.0004335039837116e-15 2.2705063964818517e-15
rhumerus -31.812047754176582 -22.257005926020362 -75.96610747118116
rradius 26.637073440958034
rwrist 3.3489848580116597
rhand -19.73453588727895 1.0
rfingers nan
rthumb 6.551607940658691 -8.148371494739639
71
root 0.5835314529203397 17.818788492172114 21.289900698959777 -1.9250933912989572 0.2235418004245786 2.354521604980908
lfemur 7.69297978540526 -1.6624064893605779 -27.485747710537137
ltibia 18.559974115813517
lfoot -8.720436073678114 -0.9100497538409524
ltoes -1.075062570283233
rfemur -31.295554819815635 3.5319339650646837 17.4782791242829
rtibia 29.792432256572734
rfoot -4.498243549092226 -11.34422748757829
rtoes 2.372447909017209
lowerback 1.0 -1.1030565125032301 -3.0508498327462714
upperback 0.5074419103761666 -1.736323268525077 1.4530046459473278
thorax -5.249390817600449 -0.7487717027728541 3.5605581080730833
lowerneck -16.015408629692352 -2.91487393595362 -2.529284666457591
upperneck 21.64647111919404 -3.315709381349733 1.0455022514538668
head 9.494409186568712 -1.5984127688247598 0.3128079277071951
lclavicle 4.564416953157406e-15 9.23062810428788e-16
lhumerus -23.016028359198845 -3.6057946425162917 81.6854911456028
lradius 27.999105119961566
lwrist 6.097595762424028
lhand -29.57827980371699 25.30220390799604
lfingers nan
lthumb -2.1601317905360298 56.582370298128026
rclavicle 2.4416627935309487e-15 -3.864827648747934e-16
rhumerus -32.671698212860726 -23.83066872882518 -75.02592875228211
rradius 25.41559274947499
rwrist 4.67634450497645
rhand -19.755612827928985 1.0
rfingers nan
rthumb 6.5893500392009345 -7.908284609596982
